<?xml version="1.0" standalone="no"?><!DOCTYPE svg PUBLIC "-//W3C//DTD SVG 1.1//EN" "http://www.w3.org/Graphics/SVG/1.1/DTD/svg11.dtd"><svg t="1489052096556" class="icon" style="" viewBox="0 0 1024 1024" version="1.1" xmlns="http://www.w3.org/2000/svg" p-id="7304" xmlns:xlink="http://www.w3.org/1999/xlink" width="290" height="290"><defs><style type="text/css"></style></defs><path d="M34.43 493.15h95.998v191.99H34.43z" fill="#FFFFFF" p-id="7305"></path><path d="M82.546 860.996v64.146c0 35.344-28.95 65.422-64.294 65.422h-0.488v14.628H145.24v-14.628h0.654c-35.344 0-63.348-30.076-63.348-65.422v-47.428" fill="#36C9A3" p-id="7306"></path><path d="M82.428 877.142c-26.51 0-47.998-21.49-47.998-47.998v-143.998h95.998v143.998c-0.002 26.508-21.492 47.998-48 47.998z" fill="#FAEDD6" p-id="7307"></path><path d="M611.266 413.152v-143.996l-48.066-112V12.538h-81.502v144.618l-45.976 112v63.998z" fill="#FA004B" p-id="7308"></path><path d="M610.416 413.152l-95.998-47.998v-48h95.998z" fill="#FFFFFF" p-id="7309"></path><path d="M402.286 493.192v-176.038l240.326 111.998v64.04M416.914 925.78v79.412h194.352V925.78M290.418 589.156h47.998v64.95h-47.998zM690.406 589.156h47.998v64.95h-47.998z" fill="#FAEDD6" p-id="7310"></path><path d="M290.424 541.148s47.998 21.492 47.998 47.998v191.996c0 97.2 78.796 175.996 175.996 175.996s175.996-78.796 175.996-175.996v-191.996c0-26.51 21.49-47.998 47.998-47.998v-47.998H290.424v47.998z" fill="#36C9A3" p-id="7311"></path><path d="M289.436 478.564h449.306v31.346H289.436zM674.742 589.148v191.996c0 88.402-71.92 160.322-160.322 160.322s-160.322-71.92-160.322-160.322v-191.996c0-35.11-28.564-63.674-63.672-63.674v31.346c17.824 0 32.324 14.502 32.324 32.328v191.996c0 63.85 31.388 120.496 79.538 155.348V1024h221.518v-85.556c49.7-34.666 82.286-92.244 82.286-157.298v-191.996c0-17.824 14.502-32.328 32.324-32.328v-31.346c-35.112-0.002-63.674 28.562-63.674 63.672z m-82.284 403.506h-158.824v-37.722c24.564 11.464 51.938 17.882 80.786 17.882 27.776 0 54.188-5.946 78.04-16.62v36.46z" fill="#232323" p-id="7312"></path><path d="M753.372 654.106h-31.348v-64.784h64.784v31.348h-33.436zM304.066 654.106h-31.348v-33.436h-31.346v-31.348h62.694zM450.352 0h142.106v31.346h-142.106zM623.804 403.582v-137.646l-48.066-111.998v-107.96h-31.346V160.38l40.59 94.578H563.2v31.346h29.258v16.718h-96.13v41.154l-48.066-22.398v-35.474h33.436v-31.346h-25.962l40.59-94.578V45.976H464.98v107.96l-48.066 111.998v41.232l-31.346-14.608v169.286h31.346v-120.094l208.98 97.388v22.706h31.346v-42.682l-33.436-15.58z m-31.346-14.608l-64.784-30.19v-24.418h64.784v54.608z" fill="#232323" p-id="7313"></path><path d="M402.286 572.604h31.346v81.502h-31.346zM435.722 541.258h31.346v31.346h-31.346zM577.828 716.8h31.346v98.22h-31.346zM515.134 687.542h31.346v31.346h-31.346zM592.458 574.694h33.436v31.346h-33.436zM416.914 750.236h33.436v31.346h-33.436zM450.352 796.212h31.346v81.502h-31.346zM515.134 877.714h31.346v31.346h-31.346zM97.176 735.608h18.808v31.346h-18.808zM65.828 798.302h31.346v31.346H65.828zM34.482 718.89h31.346v31.346H34.482z" fill="#FFFFFF" p-id="7314"></path><path d="M146.286 973.844c-26.62 0-49.11-22.304-49.11-48.704v-34.068C125.194 884.4 146.1 859.176 146.1 829.14V477.476H18.756V829.14c0 29.368 19.988 54.142 47.072 61.466v34.534c0 26.856-21.344 48.704-47.576 48.704H1.044V1024H161.96v-50.156h-15.674z m-96.184-144.7v-126.972h47.072v-31.346H50.102v-162h64.65v320.318c0 17.824-14.502 32.328-32.324 32.328-17.824-0.002-32.326-14.504-32.326-32.328z m10.518 163.51a80.02 80.02 0 0 0 21.032-19.888 80.952 80.952 0 0 0 21.44 19.888H60.62z" fill="#232323" p-id="7315"></path><path d="M898.404 493.15h95.998v191.99h-95.998z" fill="#FFFFFF" p-id="7316"></path><path d="M947.722 860.996v64.146c0 35.344-29.434 65.422-64.782 65.422h-0.002v14.628h127.478v-14.628h0.17c-35.344 0-62.864-30.076-62.864-65.422v-47.428" fill="#36C9A3" p-id="7317"></path><path d="M946.41 877.142c-26.51 0-47.998-21.49-47.998-47.998v-143.998h95.996v143.998c0 26.508-21.488 47.998-47.998 47.998z" fill="#FAEDD6" p-id="7318"></path><path d="M962.35 735.608h14.628v31.346h-14.628zM931.004 798.302h31.346v31.346h-31.346zM897.568 718.89h33.436v31.346h-33.436z" fill="#FFFFFF" p-id="7319"></path><path d="M1007.282 973.844c-26.368 0-47.02-21.394-47.02-48.704v-33.86c28.468-6.342 49.82-31.786 49.82-62.138V477.476h-127.346V829.14c0 29.042 19.552 53.586 46.178 61.21v34.788c0 26.79-20.654 47.774-47.02 47.774l-15.674 0.056V1024h156.734v-50.156h-15.672z m-93.198-144.7v-126.972h48.268v-31.346h-48.268v-162h64.652v320.318c0 17.824-14.502 32.328-32.324 32.328s-32.328-14.504-32.328-32.328z m9.248 163.51a77.056 77.056 0 0 0 21.274-19.506 79.636 79.636 0 0 0 20.604 19.506h-41.878z" fill="#232323" p-id="7320"></path></svg>